<svg width="26" height="26" viewBox="0 0 26 26" fill="none" xmlns="http://www.w3.org/2000/svg">
<path d="M25.1102 11.1062C25.1096 11.1057 25.109 11.1051 25.1085 11.1045L14.9094 0.906876C14.4747 0.472 13.8967 0.232437 13.2819 0.232437C12.6671 0.232437 12.0891 0.471809 11.6542 0.906685L1.46047 11.0992C1.45703 11.1026 1.4536 11.1062 1.45017 11.1097C0.557437 12.0075 0.558963 13.4641 1.45455 14.3596C1.86372 14.7689 2.40413 15.006 2.98192 15.0308C3.00539 15.0331 3.02904 15.0342 3.05288 15.0342H3.45938V22.5391C3.45938 24.0241 4.66781 25.2324 6.15341 25.2324H10.1436C10.548 25.2324 10.8761 24.9046 10.8761 24.5V18.6162C10.8761 17.9385 11.4274 17.3873 12.1051 17.3873H14.4587C15.1364 17.3873 15.6877 17.9385 15.6877 18.6162V24.5C15.6877 24.9046 16.0156 25.2324 16.4202 25.2324H20.4104C21.896 25.2324 23.1044 24.0241 23.1044 22.5391V15.0342H23.4813C24.0959 15.0342 24.6739 14.7949 25.109 14.36C26.0056 13.463 26.006 12.0038 25.1102 11.1062Z" fill="#CACACA"/>
</svg>
