<svg width="26" height="23" viewBox="0 0 26 23" fill="none" xmlns="http://www.w3.org/2000/svg">
<path d="M22.3743 10.8873C21.1809 11.871 19.6527 12.4626 17.9891 12.4626C17.4133 12.4626 16.8537 12.3917 16.3186 12.2583C17.2754 13.7152 17.8329 15.4566 17.8329 17.326V20.0716C17.8329 21.0985 17.4579 22.039 16.8388 22.7654H23.0884C24.5737 22.7654 25.782 21.5571 25.782 20.0716V17.326C25.782 14.6538 24.4298 12.2917 22.3743 10.8873Z" fill="#CACACA"/>
<path d="M8.57506 10.9978C11.5744 10.9978 14.0144 8.55769 14.0144 5.55839C14.0144 2.55889 11.5744 0.11882 8.57506 0.11882C5.57575 0.11882 3.13568 2.55889 3.13568 5.55839C3.13568 8.55769 5.57575 10.9978 8.57506 10.9978Z" fill="#CACACA"/>
<path d="M17.9888 10.9978C20.9882 10.9978 23.4284 8.55769 23.4284 5.55839C23.4284 2.55889 20.9882 0.11882 17.9888 0.11882C16.5379 0.11882 15.218 0.68988 14.2417 1.61895C15.0212 2.73704 15.4792 4.09507 15.4792 5.55839C15.4792 7.02151 15.0212 8.37955 14.2417 9.49763C15.218 10.4267 16.5379 10.9978 17.9888 10.9978Z" fill="#CACACA"/>
<path d="M12.9602 10.8873C11.767 11.871 10.2388 12.4626 8.57503 12.4626C6.91125 12.4626 5.38308 11.8712 4.18965 10.8873C2.1341 12.2917 0.781982 14.6538 0.781982 17.326V20.0716C0.781982 21.5571 1.99029 22.7654 3.47573 22.7654H13.6741C15.1596 22.7654 16.3679 21.5571 16.3679 20.0716V17.326C16.3679 14.6538 15.016 12.2917 12.9602 10.8873Z" fill="#CACACA"/>
</svg>
